<svg preserveAspectRatio="none" xmlns="http://www.w3.org/2000/svg" aria-hidden="true" class="ncg4de Zjvnm " viewBox="0 0 1000 500"><polyline vector-effect="non-scaling-stroke" points="0,500 0,422 11,421 22,419 34,417 45,415 56,414 67,414 79,413 90,409 101,395 112,359 124,290 135,200 146,141 157,162 169,225 180,280 191,308 202,323 213,335 225,346 236,357 247,372 258,391 270,406 281,414 292,418 303,420 315,422 326,422 337,421 348,421 360,421 371,421 382,421 393,419 404,416 416,412 427,408 438,405 449,402 461,400 472,397 483,395 494,394 506,397 517,401 528,405 539,409 551,413 562,417 573,421 584,424 596,427 607,429 618,431 629,433 640,433 652,433 663,433 674,434 685,434 697,434 708,434 719,434 730,434 742,434 753,434 764,435 775,435 787,436 798,435 809,435 820,434 831,434 843,434 854,434 865,434 876,434 888,434 899,434 910,434 921,433 933,432 944,432 955,431 966,430 978,430 989,430 1000,430 1000,500"></polyline></svg>